<svg width="24" height="25" viewBox="0 0 24 25" fill="none" xmlns="http://www.w3.org/2000/svg">
<g id="Iconly/Bulk/Category">
<g id="Category">
<path id="Fill 1" opacity="0.4" d="M16.0756 2.01172H19.4616C20.8639 2.01172 22.0001 3.15757 22.0001 4.57168V7.98624C22.0001 9.40036 20.8639 10.5462 19.4616 10.5462H16.0756C14.6734 10.5462 13.5371 9.40036 13.5371 7.98624V4.57168C13.5371 3.15757 14.6734 2.01172 16.0756 2.01172Z" fill="gray"/>
<path id="Combined Shape" fill-rule="evenodd" clip-rule="evenodd" d="M4.53852 2.01172H7.92449C9.32676 2.01172 10.463 3.15757 10.463 4.57168V7.98624C10.463 9.40036 9.32676 10.5462 7.92449 10.5462H4.53852C3.13626 10.5462 2 9.40036 2 7.98624V4.57168C2 3.15757 3.13626 2.01172 4.53852 2.01172ZM4.53852 13.4772H7.92449C9.32676 13.4772 10.463 14.6231 10.463 16.0372V19.4518C10.463 20.8649 9.32676 22.0117 7.92449 22.0117H4.53852C3.13626 22.0117 2 20.8649 2 19.4518V16.0372C2 14.6231 3.13626 13.4772 4.53852 13.4772ZM19.4615 13.4772H16.0755C14.6732 13.4772 13.537 14.6231 13.537 16.0372V19.4518C13.537 20.8649 14.6732 22.0117 16.0755 22.0117H19.4615C20.8637 22.0117 22 20.8649 22 19.4518V16.0372C22 14.6231 20.8637 13.4772 19.4615 13.4772Z" fill="gray"/>
</g>
</g>
</svg>
