<svg width="24" height="25" viewBox="0 0 24 25" fill="none" xmlns="http://www.w3.org/2000/svg">
<g id="Iconly/Bulk/Filter">
<g id="Filter">
<path id="Fill 1" opacity="0.4" d="M10.0833 15.9688H3.50777C2.67555 15.9688 2 16.6325 2 17.4501C2 18.2666 2.67555 18.9314 3.50777 18.9314H10.0833C10.9155 18.9314 11.5911 18.2666 11.5911 17.4501C11.5911 16.6325 10.9155 15.9688 10.0833 15.9688Z" fill="#8A92A6"/>
<path id="Fill 4" opacity="0.4" d="M22.0001 6.39039C22.0001 5.57386 21.3246 4.91016 20.4934 4.91016H13.9179C13.0857 4.91016 12.4102 5.57386 12.4102 6.39039C12.4102 7.20801 13.0857 7.87172 13.9179 7.87172H20.4934C21.3246 7.87172 22.0001 7.20801 22.0001 6.39039Z" fill="#8A92A6"/>
<path id="Fill 6" d="M8.87774 6.39028C8.87774 8.25695 7.33886 9.76993 5.43887 9.76993C3.53999 9.76993 2 8.25695 2 6.39028C2 4.5247 3.53999 3.01172 5.43887 3.01172C7.33886 3.01172 8.87774 4.5247 8.87774 6.39028Z" fill="#8A92A6"/>
<path id="Fill 9" d="M22.0008 17.4109C22.0008 19.2765 20.4619 20.7895 18.5619 20.7895C16.663 20.7895 15.123 19.2765 15.123 17.4109C15.123 15.5442 16.663 14.0312 18.5619 14.0312C20.4619 14.0312 22.0008 15.5442 22.0008 17.4109Z" fill="#8A92A6"/>
</g>
</g>
</svg>
