<svg width="72" height="73" viewBox="0 0 72 73" fill="none" xmlns="http://www.w3.org/2000/svg">
<g id="Group 386">
<g id="Group 385">
<circle id="Ellipse 129" cx="36" cy="36.5" r="34" stroke="#E9ECEF" stroke-width="2"/>
<path id="Ellipse 128" d="M36 2.5C44.3437 2.5 52.3962 5.56812 58.6245 11.1203C64.8528 16.6725 68.8221 24.3211 69.7767 32.6101C70.7313 40.899 68.6046 49.2497 63.8014 56.0723C58.9983 62.8949 51.854 67.7132 43.7287 69.6098C35.6033 71.5065 27.0642 70.3492 19.7369 66.3581C12.4095 62.3671 6.80555 55.821 3.99173 47.966C1.1779 40.111 1.35069 31.4956 4.47722 23.7597C7.60374 16.0239 13.4657 9.70775 20.9472 6.01372" stroke="#3A57E8" stroke-width="4" stroke-linecap="round"/>
</g>
<path id="Arrow 5" d="M27.1904 44.784C26.8209 45.1944 26.854 45.8267 27.2645 46.1963C27.6749 46.5658 28.3072 46.5327 28.6767 46.1223L27.1904 44.784ZM44.7763 27.8042C44.7474 27.2527 44.2768 26.829 43.7253 26.8579L34.7376 27.3289C34.1861 27.3578 33.7624 27.8284 33.7913 28.3799C33.8202 28.9314 34.2908 29.3551 34.8423 29.3262L42.8313 28.9075L43.25 36.8965C43.2789 37.4481 43.7495 37.8717 44.301 37.8428C44.8525 37.8139 45.2762 37.3434 45.2473 36.7919L44.7763 27.8042ZM28.6767 46.1223L44.5208 28.5257L43.0345 27.1874L27.1904 44.784L28.6767 46.1223Z" fill="#ADB5BD"/>
</g>
</svg>
