<svg width="71" height="73" viewBox="0 0 71 73" fill="none" xmlns="http://www.w3.org/2000/svg">
<g id="Group 386">
<g id="Group 385">
<circle id="Ellipse 129" cx="35" cy="36.5" r="34" stroke="#E9ECEF" stroke-width="2"/>
<path id="Ellipse 128" d="M34.9994 2.5C43.3432 2.5 51.3956 5.56812 57.624 11.1203C63.8523 16.6725 67.8215 24.3211 68.7761 32.6101C69.7307 40.899 67.604 49.2497 62.8009 56.0723C57.9977 62.8949 50.8535 67.7132 42.7281 69.6098C34.6028 71.5065 26.0637 70.3492 18.7363 66.3581" stroke="#FFD329" stroke-width="4" stroke-linecap="round"/>
</g>
<path id="Arrow 5" d="M26.1904 44.784C25.8209 45.1944 25.854 45.8267 26.2645 46.1963C26.6749 46.5658 27.3072 46.5327 27.6767 46.1223L26.1904 44.784ZM43.7763 27.8042C43.7474 27.2527 43.2768 26.829 42.7253 26.8579L33.7376 27.3289C33.1861 27.3578 32.7624 27.8284 32.7913 28.3799C32.8202 28.9314 33.2908 29.3551 33.8423 29.3262L41.8313 28.9075L42.25 36.8965C42.2789 37.4481 42.7495 37.8717 43.301 37.8428C43.8525 37.8139 44.2762 37.3434 44.2473 36.7919L43.7763 27.8042ZM27.6767 46.1223L43.5208 28.5257L42.0345 27.1874L26.1904 44.784L27.6767 46.1223Z" fill="#ADB5BD"/>
</g>
</svg>
