<svg width="24" height="25" viewBox="0 0 24 25" fill="none" xmlns="http://www.w3.org/2000/svg">
<g id="Iconly/Bulk/Info Circle">
<path id="Fill 1" opacity="0.4" d="M22 12.0117C22 17.5357 17.523 22.0117 12 22.0117C6.477 22.0117 2 17.5357 2 12.0117C2 6.48972 6.477 2.01172 12 2.01172C17.523 2.01172 22 6.48972 22 12.0117Z" fill="#8A92A6"/>
<path id="Combined Shape" fill-rule="evenodd" clip-rule="evenodd" d="M12.8691 12.6427C12.8691 13.1247 12.4761 13.5177 11.9941 13.5177C11.5121 13.5177 11.1191 13.1247 11.1191 12.6427V8.22266C11.1191 7.74066 11.5121 7.34766 11.9941 7.34766C12.4761 7.34766 12.8691 7.74066 12.8691 8.22266V12.6427ZM11.1241 15.8155C11.1241 15.3335 11.5151 14.9405 11.9941 14.9405C12.4871 14.9405 12.8791 15.3335 12.8791 15.8155C12.8791 16.2975 12.4871 16.6905 12.0041 16.6905C11.5191 16.6905 11.1241 16.2975 11.1241 15.8155Z" fill="#8A92A6"/>
</g>
</svg>
