<svg width="24" height="25" viewBox="0 0 24 25" fill="none" xmlns="http://www.w3.org/2000/svg">
<g id="Iconly/Bulk/Ticket Star">
<g id="Ticket Star">
<path id="Fill 1" opacity="0.4" d="M21.25 13.4881C20.429 13.4881 19.761 12.8262 19.761 12.0127C19.761 11.1982 20.429 10.5363 21.25 10.5363C21.449 10.5363 21.64 10.458 21.78 10.3193C21.921 10.1796 22 9.99036 22 9.79318L21.999 7.11587C21.999 4.85274 20.14 3.01172 17.856 3.01172H6.144C3.86 3.01172 2.001 4.85274 2.001 7.11587L2 9.87938C2 10.0766 2.079 10.2658 2.22 10.4055C2.36 10.5443 2.551 10.6225 2.75 10.6225C3.599 10.6225 4.239 11.22 4.239 12.0127C4.239 12.8262 3.571 13.4881 2.75 13.4881C2.336 13.4881 2 13.821 2 14.2312V16.9066C2 19.1697 3.858 21.0117 6.143 21.0117H17.857C20.142 21.0117 22 19.1697 22 16.9066V14.2312C22 13.821 21.664 13.4881 21.25 13.4881Z" fill="#8A92A6"/>
<path id="Fill 4" d="M15.4298 11.5989L14.2508 12.7469L14.5298 14.3699C14.5778 14.6509 14.4648 14.9279 14.2338 15.0939C14.0048 15.2619 13.7058 15.2829 13.4538 15.1489L11.9988 14.3839L10.5408 15.1499C10.4328 15.2069 10.3148 15.2369 10.1978 15.2369C10.0448 15.2369 9.89385 15.1889 9.76385 15.0949C9.53385 14.9279 9.42085 14.6509 9.46885 14.3699L9.74685 12.7469L8.56785 11.5989C8.36385 11.4009 8.29285 11.1099 8.38085 10.8389C8.46985 10.5689 8.69985 10.3769 8.98085 10.3369L10.6068 10.0999L11.3358 8.62294C11.4628 8.36894 11.7168 8.21094 11.9988 8.21094H12.0008C12.2838 8.21194 12.5378 8.36994 12.6628 8.62394L13.3918 10.0999L15.0208 10.3379C15.2988 10.3769 15.5288 10.5689 15.6168 10.8389C15.7058 11.1099 15.6348 11.4009 15.4298 11.5989Z" fill="#8A92A6"/>
</g>
</g>
</svg>
